<?xml version="1.0" encoding="utf-8"?>

<!DOCTYPE svg PUBLIC "-//W3C//DTD SVG 1.1//EN" "http://www.w3.org/Graphics/SVG/1.1/DTD/svg11.dtd">
<svg version="1.1" id="Слой_1" xmlns="http://www.w3.org/2000/svg" xmlns:xlink="http://www.w3.org/1999/xlink" x="0px" y="0px"
	 viewBox="0 0 2406.248 1799.7749" enable-background="new 0 0 2406.248 1799.7749" xml:space="preserve">
<g>
	<g>
		
			<radialGradient id="SVGID_1_" cx="1221.615" cy="357.2141" r="1362.2401" gradientTransform="matrix(0.9958 0 0 0.9958 4.7757 3.5019)" gradientUnits="userSpaceOnUse">
			<stop  offset="0" style="stop-color:#FA8787"/>
			<stop  offset="0.1032" style="stop-color:#F26567"/>
			<stop  offset="0.2365" style="stop-color:#E93F43"/>
			<stop  offset="0.3601" style="stop-color:#E32329"/>
			<stop  offset="0.469" style="stop-color:#DF131A"/>
			<stop  offset="0.5515" style="stop-color:#DE0D14"/>
			<stop  offset="0.5899" style="stop-color:#D70D13"/>
			<stop  offset="0.7113" style="stop-color:#C60D11"/>
			<stop  offset="0.8424" style="stop-color:#BB0D0F"/>
			<stop  offset="1" style="stop-color:#B80D0F"/>
		</radialGradient>
		<path fill="url(#SVGID_1_)" d="M1227.821,1699.8875l-9.4999-4.697c-252.9886-125.0079-845.187-470.0039-880.4662-972.3116
			c-10.0652-143.5934,27.3976-265.3999,108.3821-352.2738c78.8043-84.5165,198.1402-132.9586,327.5093-132.9586
			c36.0389,0,72.2252,3.7243,107.5762,11.0847c74.8267,15.5787,129.618,41.1029,177.9461,63.6284
			c55.6989,25.9438,103.7759,48.3764,169.0248,49.6785c64.2999-1.3021,112.4231-23.7347,168.0922-49.6785
			c48.3682-22.5255,103.1595-48.0497,178.0183-63.6284c35.3021-7.3604,71.4949-11.0847,107.5234-11.0847
			c129.329,0,248.7236,48.4421,327.4817,132.9586c80.9991,86.8652,118.4962,208.6718,108.401,352.2738
			c-35.2639,502.3245-627.4818,847.3417-880.4938,972.3116L1227.821,1699.8875z M773.7464,280.5177
			c-117.4871,0-225.4219,43.4979-296.1446,119.3631c-72.6811,77.9227-106.2001,188.6004-96.9789,320.0042
			c33.2956,474.0717,595.8639,806.6312,847.1981,932.1451c251.3658-125.4971,813.9237-458.0522,847.2383-932.1451
			c9.2126-131.4418-24.3257-242.0983-96.9813-320.0422c-70.7058-75.8458-178.651-119.3251-296.1506-119.3251
			c-33.0869,0-66.3467,3.452-98.8004,10.194c-69.9884,14.5705-120.0995,37.9296-168.5983,60.5497
			c-57.577,26.8242-111.9967,52.1664-186.2352,53.6733c-75.1475-1.5069-129.5229-26.8492-187.1527-53.6733
			c-48.4841-22.6201-98.6142-45.9793-168.59-60.5497C840.1099,283.9697,806.8458,280.5177,773.7464,280.5177z"/>
		
			<radialGradient id="SVGID_2_" cx="1228.2111" cy="409.6252" r="1302.6046" gradientTransform="matrix(0.9958 0 0 0.9958 4.7757 3.5019)" gradientUnits="userSpaceOnUse">
			<stop  offset="0" style="stop-color:#F5080F"/>
			<stop  offset="0.4375" style="stop-color:#E60509"/>
			<stop  offset="1" style="stop-color:#CD0000"/>
		</radialGradient>
		<path fill="url(#SVGID_2_)" d="M1227.821,400.2459c126.9193-2.602,190.2314-79.7775,346.4731-112.3134
			c247.0023-51.4823,536.5271,84.3017,511.1006,445.9485c-27.4316,391.0539-421.9143,727.2465-857.5737,942.5081
			c-435.6299-215.2616-830.1212-551.4542-857.5612-942.5081c-25.4123-361.6468,264.1281-497.4308,511.1089-445.9485
			C1037.5854,320.4684,1100.9226,397.644,1227.821,400.2459z"/>
		
			<radialGradient id="SVGID_3_" cx="1232.714" cy="397.4982" r="396.6363" gradientTransform="matrix(0.9958 0 0 0.9958 4.7757 3.5019)" gradientUnits="userSpaceOnUse">
			<stop  offset="0" style="stop-color:#FF9898"/>
			<stop  offset="0.0123" style="stop-color:#FF9695"/>
			<stop  offset="0.218" style="stop-color:#F8706F"/>
			<stop  offset="0.4225" style="stop-color:#F35352"/>
			<stop  offset="0.623" style="stop-color:#EF3E3C"/>
			<stop  offset="0.8177" style="stop-color:#ED312F"/>
			<stop  offset="1" style="stop-color:#EC2D2B"/>
		</radialGradient>
		<path fill="url(#SVGID_3_)" d="M1233.7334,399.6867c103.8644-6.1997,179.791-64.3039,272.6696-94.2633
			c314.505-101.4525,560.6591,87.612,407.1183,273.9359C1685.6707,855.9771,803.7291,874.8137,539.0483,592.2625
			c-133.9504-142.9945,62.962-401.4861,409.9774-286.6532C1057.2177,341.4097,1117.0924,396.4858,1233.7334,399.6867z"/>
		<g>
			<g>
				
					<radialGradient id="SVGID_4_" cx="2052.752" cy="648.4996" r="917.6645" gradientTransform="matrix(0.9958 0 0 0.9958 4.7757 3.5019)" gradientUnits="userSpaceOnUse">
					<stop  offset="0" style="stop-color:#FF9192"/>
					<stop  offset="0.0669" style="stop-color:#F77A7C"/>
					<stop  offset="0.1809" style="stop-color:#EC5A5C"/>
					<stop  offset="0.2908" style="stop-color:#E44345"/>
					<stop  offset="0.3936" style="stop-color:#E03538"/>
					<stop  offset="0.4822" style="stop-color:#DE3033"/>
					<stop  offset="1" style="stop-color:#D61315"/>
				</radialGradient>
				<path opacity="0.9" fill="url(#SVGID_4_)" d="M1551.5431,1380.6136c493.2697-335.8719,484.5846-736.113,438.5586-955.3564
					C2178.3833,638.3688,2079.2163,1143.5586,1551.5431,1380.6136z"/>
				
					<radialGradient id="SVGID_5_" cx="1982.9706" cy="754.9531" r="688.7523" gradientTransform="matrix(0.9951 -0.0394 0.0394 0.9951 -29.5271 57.3605)" gradientUnits="userSpaceOnUse">
					<stop  offset="0" style="stop-color:#FF5F60"/>
					<stop  offset="0.0697" style="stop-color:#F85556"/>
					<stop  offset="0.287" style="stop-color:#E53A3D"/>
					<stop  offset="0.415" style="stop-color:#DE3033"/>
					<stop  offset="1" style="stop-color:#D61315"/>
				</radialGradient>
				<path opacity="0.8" fill="url(#SVGID_5_)" d="M1643.35,1326.1348c209.4418-204.0952,337.8088-463.9118,337.7076-672.5079
					C2043.7241,864.9978,1963.8221,1073.625,1643.35,1326.1348z"/>
			</g>
			<g>
				
					<radialGradient id="SVGID_6_" cx="2292.1675" cy="648.4996" r="917.6645" gradientTransform="matrix(-0.9958 0 0 0.9958 2687.4382 3.5019)" gradientUnits="userSpaceOnUse">
					<stop  offset="0" style="stop-color:#FF9192"/>
					<stop  offset="0.0669" style="stop-color:#F77A7C"/>
					<stop  offset="0.1809" style="stop-color:#EC5A5C"/>
					<stop  offset="0.2908" style="stop-color:#E44345"/>
					<stop  offset="0.3936" style="stop-color:#E03538"/>
					<stop  offset="0.4822" style="stop-color:#DE3033"/>
					<stop  offset="1" style="stop-color:#D61315"/>
				</radialGradient>
				<path opacity="0.9" fill="url(#SVGID_6_)" d="M902.2612,1380.6136c-493.2744-335.8719-484.5846-736.113-438.5587-955.3564
					C275.4207,638.3688,374.5879,1143.5586,902.2612,1380.6136z"/>
				
					<radialGradient id="SVGID_7_" cx="2222.1802" cy="764.4243" r="688.7524" gradientTransform="matrix(-0.9951 -0.0394 -0.0394 0.9951 2721.7407 57.3605)" gradientUnits="userSpaceOnUse">
					<stop  offset="0" style="stop-color:#FF5F60"/>
					<stop  offset="0.0697" style="stop-color:#F85556"/>
					<stop  offset="0.287" style="stop-color:#E53A3D"/>
					<stop  offset="0.415" style="stop-color:#DE3033"/>
					<stop  offset="1" style="stop-color:#D61315"/>
				</radialGradient>
				<path opacity="0.8" fill="url(#SVGID_7_)" d="M810.4521,1326.1348C601.0099,1122.0396,472.6472,862.223,472.7466,653.6269
					C410.078,864.9978,489.9796,1073.625,810.4521,1326.1348z"/>
			</g>
		</g>
	</g>
	<g>
		
			<radialGradient id="SVGID_8_" cx="1705.4471" cy="-98.3241" r="355.7195" gradientTransform="matrix(0.9958 0 0 0.5935 4.7757 369.3633)" gradientUnits="userSpaceOnUse">
			<stop  offset="0.004" style="stop-color:#FFFFFF"/>
			<stop  offset="1" style="stop-color:#FFFFFF;stop-opacity:0"/>
		</radialGradient>
		<path fill="url(#SVGID_8_)" d="M2057.2837,311.0112c0,116.603-158.6051,211.1173-354.2257,211.1173
			c-195.6377,0-354.2217-94.5143-354.2217-211.1173c0-116.5904,158.584-211.1237,354.2217-211.1237
			C1898.6786,99.8874,2057.2837,194.4208,2057.2837,311.0112z"/>
		
			<radialGradient id="SVGID_9_" cx="776.8673" cy="-98.3099" r="355.7143" gradientTransform="matrix(0.9958 0 0 0.5935 4.7757 369.3633)" gradientUnits="userSpaceOnUse">
			<stop  offset="0.004" style="stop-color:#FFFFFF"/>
			<stop  offset="1" style="stop-color:#FFFFFF;stop-opacity:0"/>
		</radialGradient>
		<path fill="url(#SVGID_9_)" d="M1132.5933,311.0216c0,116.5822-158.5818,211.1156-354.2047,211.1156
			c-195.6398,0-354.2216-94.5334-354.2216-211.1156c0-116.6008,158.5818-211.1259,354.2216-211.1259
			C974.0115,99.8957,1132.5933,194.4208,1132.5933,311.0216z"/>
		
			<radialGradient id="SVGID_10_" cx="2033.7531" cy="673.7766" r="243.7428" gradientTransform="matrix(0.9958 0 0 0.9958 4.7757 3.5019)" gradientUnits="userSpaceOnUse">
			<stop  offset="0.004" style="stop-color:#FFFFFF"/>
			<stop  offset="1" style="stop-color:#FFFFFF;stop-opacity:0"/>
		</radialGradient>
		<path fill="url(#SVGID_10_)" d="M2272.7014,674.4454c0,134.0455-108.6794,242.7271-242.7311,242.7271
			c-134.035,0-242.6976-108.6816-242.6976-242.7271c0-134.058,108.6626-242.7206,242.6976-242.7206
			C2164.022,431.7248,2272.7014,540.3874,2272.7014,674.4454z"/>
		
			<radialGradient id="SVGID_11_" cx="413.8816" cy="673.7786" r="284.5669" gradientTransform="matrix(0.9958 0 0 0.9958 4.7757 3.5019)" gradientUnits="userSpaceOnUse">
			<stop  offset="0.004" style="stop-color:#FFFFFF"/>
			<stop  offset="1" style="stop-color:#FFFFFF;stop-opacity:0"/>
		</radialGradient>
		<path fill="url(#SVGID_11_)" d="M700.2913,674.4454c0,156.5118-126.8839,283.3762-283.3745,283.3762
			c-156.4992,0-283.3701-126.8644-283.3701-283.3762c0-156.5053,126.8709-283.3658,283.3701-283.3658
			C573.4074,391.0796,700.2913,517.9401,700.2913,674.4454z"/>
	</g>
</g>
</svg>
